:SAMPLES-PER-SECOND 30
:FULLY-SPECIFIED
:DEGREES
335
root  6.3808 35.7801 0.315312 -72.8296 -76.5333 82.0603
RightUpLeg  -30.2824 -12.7191 -38.0356
RightLeg  21.9056 -1.76464 -0.986277
RightFoot  7.09839 -4.7209 28.8182
RightToes  -2.32832e-010 0 -3.6325e-017
Spine  33.5387 -4.12847 0.973688
Spine1  -3.55719 -0.411775 -21.9453
HEad  -43.162 -3.64224 -1.99326
LeftShoulder1  2.64401 -5.71205 -22.3861
LeftArm  -25.4961 -22.287 -56.1647
LeftForeArm  -60.5955 -0.426173 -4.14001
LeftHand  0.223414 -2.97131 -2.88348
RightShoulder  1.4466 3.28898 14.4815
RightArm  -26.4421 15.9622 67.0147
RightForeArm  -30.808 -0.732557 4.67369
RightHand  0.02609 2.40894 0.198298
LeftUpLeg  -24.1423 17.8825 7.03121
LeftLeg  20.6659 0.81512 0.604319
LeftFoot  1.28237 3.25275 -28.9095
LeftToes  2.2737e-010 4.38529e-011 2.18788e-011
336
root  6.26414 35.8619 0.615731 -71.2124 -74.6083 80.4765
RightUpLeg  -28.5679 -11.9626 -40.9807
RightLeg  20.2613 -3.22234 -1.52002
RightFoot  7.75278 -4.98346 29.3528
RightToes  -2.32832e-010 0 -3.6325e-017
Spine  32.6083 -5.20249 1.20065
Spine1  -2.52732 -1.06222 -23.7953
HEad  -43.1359 -3.66755 -2.3867
LeftShoulder1  2.89581 -6.01827 -24.2025
LeftArm  -23.2701 -22.899 -55.5265
LeftForeArm  -59.2466 -2.17947 -5.37306
LeftHand  0.0354926 -2.83914 -0.260233
RightShoulder  1.41135 3.2056 14.1919
RightArm  -24.8064 17.5273 67.2671
RightForeArm  -26.1981 -2.4395 5.3646
RightHand  0.0106831 1.80536 -0.000140926
LeftUpLeg  -23.6549 16.847 4.73512
LeftLeg  19.7988 1.20555 0.503947
LeftFoot  1.32089 3.22739 -28.6106
LeftToes  2.2737e-010 4.38529e-011 2.18788e-011
337
root  6.12308 35.9909 0.72135 -69.3058 -74.715 78.1939
RightUpLeg  -26.8677 -10.8557 -41.2074
RightLeg  18.9428 -4.64863 -1.981
RightFoot  8.1898 -5.07467 29.2259
RightToes  -2.32832e-010 0 -3.6325e-017
Spine  31.9473 -4.9937 0.701679
Spine1  -1.39987 -1.18027 -21.6582
HEad  -43.6382 -2.95427 -3.22073
LeftShoulder1  3.11706 -6.62394 -24.6049
LeftArm  -19.8025 -22.6766 -56.2034
LeftForeArm  -59.5363 -3.36513 -6.88756
LeftHand  -0.00907732 -2.24954 0.313813
RightShoulder  1.43587 3.20959 14.5805
RightArm  -24.3627 18.5103 66.0702
RightForeArm  -21.8336 -2.01523 5.92891
RightHand  -0.11053 1.13235 -2.07498
LeftUpLeg  -22.7504 14.325 5.24391
LeftLeg  19.1437 3.11255 1.18802
LeftFoot  1.49314 3.25553 -28.4835
LeftToes  2.2737e-010 4.38529e-011 2.18788e-011
338
root  5.95255 36.158 0.620105 -70.6301 -76.0301 78.806
RightUpLeg  -25.8878 -10.2202 -39.5058
RightLeg  18.008 -4.55437 -1.85884
RightFoot  8.32255 -4.9853 28.5501
RightToes  -2.32832e-010 0 -3.6325e-017
Spine  31.7816 -3.67369 -0.477635
Spine1  -1.0891 -0.63193 -18.3664
HEad  -43.6065 -1.86051 -3.81078
LeftShoulder1  3.03917 -6.84995 -23.0869
LeftArm  -15.9417 -21.8466 -58.4634
LeftForeArm  -58.4439 -3.06069 -8.42667
LeftHand  0.020875 -1.6993 -0.195285
RightShoulder  1.46778 3.21596 15.0803
RightArm  -24.2246 17.9168 64.7597
RightForeArm  -18.5357 -0.182169 6.57906
RightHand  -0.254407 0.864028 -4.81592
LeftUpLeg  -20.8707 12.5537 7.26119
LeftLeg  17.9902 5.33403 1.90256
LeftFoot  1.93371 3.37638 -28.5676
LeftToes  2.2737e-010 4.38529e-011 2.18788e-011
339
root  5.71769 36.3628 0.349378 -73.4317 -78.1992 81.0985
RightUpLeg  -25.4179 -10.0923 -36.4383
RightLeg  17.2271 -3.64158 -1.46951
RightFoot  8.20736 -4.84253 27.9281
RightToes  -2.32832e-010 0 -3.6325e-017
Spine  31.4586 -2.09931 -1.58571
Spine1  -1.5461 0.117332 -15.0477
HEad  -42.6505 -0.491824 -4.01134
LeftShoulder1  2.75932 -6.50251 -21.2055
LeftArm  -13.0556 -20.9616 -60.4765
LeftForeArm  -54.3689 -1.79555 -9.77633
LeftHand  -0.0117744 -0.248662 0.336588
RightShoulder  1.51546 3.30721 15.5274
RightArm  -23.8057 16.3901 63.7833
RightForeArm  -15.515 1.75078 7.3171
RightHand  -0.35245 1.10662 -6.43145
LeftUpLeg  -18.5182 12.3269 10.1411
LeftLeg  15.8795 6.66138 2.17096
LeftFoot  2.81427 3.64881 -28.9521
LeftToes  2.2737e-010 4.38529e-011 2.18788e-011
340
root  5.41907 36.5831 -0.0206098 -71.4344 -81.1798 79.0499
RightUpLeg  -24.8321 -10.0226 -32.2823
RightLeg  16.5421 -3.42242 -1.34697
RightFoot  7.9178 -4.6912 27.4844
RightToes  -2.32832e-010 0 -3.6325e-017
Spine  30.5467 -0.932461 -2.29515
Spine1  -2.09667 0.40107 -10.7398
HEad  -41.4723 1.20499 -4.42998
LeftShoulder1  2.53204 -6.07321 -19.9945
LeftArm  -12.6759 -19.536 -61.1976
LeftForeArm  -45.0062 -1.5788 -10.6334
LeftHand  -0.0707022 1.62137 1.97256
RightShoulder  1.54796 3.36902 15.8275
RightArm  -22.6733 15.1648 62.9218
RightForeArm  -11.6368 3.18277 8.21912
RightHand  -0.406335 1.3918 -7.10064
LeftUpLeg  -16.5879 13.1756 13.767
LeftLeg  13.0776 6.44839 2.18863
LeftFoot  4.05476 4.04662 -29.5135
LeftToes  2.2737e-010 4.38529e-011 2.18788e-011
341
root  5.11629 36.7629 -0.422455 -50.6852 -84.4247 58.3932
RightUpLeg  -23.9077 -10.0873 -27.2521
RightLeg  16.1843 -4.02327 -1.53968
RightFoot  7.46454 -4.47033 26.8506
RightToes  -2.32832e-010 0 -3.6325e-017
Spine  29.3971 -0.203747 -2.96307
Spine1  -2.32243 -0.0779508 -4.24902
HEad  -40.8118 3.3402 -5.67404
LeftShoulder1  2.42292 -5.93085 -19.1785
LeftArm  -13.3367 -16.7081 -61.2937
LeftForeArm  -29.1488 -4.14808 -11.2983
LeftHand  -0.163286 1.59313 4.69015
RightShoulder  1.49856 3.13373 15.8879
RightArm  -20.1664 14.9814 61.9188
RightForeArm  -6.18024 4.36906 9.57733
RightHand  -0.446701 1.1836 -8.02958
LeftUpLeg  -15.5404 14.6622 18.0107
LeftLeg  10.4649 4.58239 2.32696
LeftFoot  5.18038 4.43821 -30.1417
LeftToes  2.2737e-010 4.38529e-011 2.18788e-011
342
root  4.87387 36.8343 -0.811762 1.89606 -85.5026 5.65714
RightUpLeg  -22.9352 -10.5286 -21.4685
RightLeg  16.4261 -4.68779 -1.8218
RightFoot  6.81682 -4.16257 25.9331
RightToes  -2.32832e-010 0 -3.6325e-017
Spine  28.7191 0.296216 -3.59841
Spine1  -2.55812 -1.08902 4.16609
HEad  -40.4817 5.83785 -7.55678
LeftShoulder1  2.35858 -5.98767 -18.2807
LeftArm  -8.37988 -12.9087 -61.6686
LeftForeArm  -11.566 -9.36648 -11.6788
LeftHand  -0.524626 -0.240507 10.5319
RightShoulder  1.40326 2.72234 15.849
RightArm  -14.9717 15.5408 60.5825
RightForeArm  0.19069 6.3722 11.2419
RightHand  -0.46729 0.467034 -9.34884
LeftUpLeg  -15.5654 16.3737 23.0176
LeftLeg  9.39453 1.68194 2.52944
LeftFoot  5.57409 4.66781 -30.9244
LeftToes  2.2737e-010 4.38529e-011 2.18788e-011
343
root  4.70451 36.7411 -1.15311 47.5939 -81.9778 -40.4813
RightUpLeg  -22.2751 -11.1845 -15.1219
RightLeg  17.3843 -5.17009 -2.04731
RightFoot  5.86204 -3.80203 25.0334
RightToes  -2.32832e-010 0 -3.6325e-017
Spine  28.8385 0.64401 -3.57439
Spine1  -3.36907 -2.1193 13.1923
HEad  -39.8288 8.39144 -9.4986
LeftShoulder1  2.26803 -6.09527 -16.9575
LeftArm  6.01701 -9.65754 -62.6064
LeftForeArm  3.26164 -14.7311 -10.126
LeftHand  -1.14635 -1.22292 20.3087
RightShoulder  1.33342 2.46454 15.6346
RightArm  -3.83402 16.0697 59.1658
RightForeArm  3.6626 10.5471 11.7088
RightHand  -0.480161 -0.185632 -10.7235
LeftUpLeg  -16.7981 16.0387 29.5097
LeftLeg  11.0408 0.40315 2.41162
LeftFoot  5.00192 4.66147 -31.9055
LeftToes  2.2737e-010 4.38529e-011 2.18788e-011
344
root  4.57401 36.4528 -1.41972 60.9179 -76.898 -54.4279
RightUpLeg  -22.2746 -12.2428 -8.84
RightLeg  19.4038 -4.93865 -2.1279
RightFoot  4.32273 -3.36821 24.3614
RightToes  -2.32832e-010 0 -3.6325e-017
Spine  29.4175 1.00873 -3.06348
Spine1  -4.45118 -2.80326 21.8713
HEad  -38.9808 10.7676 -11.2874
LeftShoulder1  2.15193 -6.21413 -15.3386
LeftArm  15.2689 -8.24584 -63.1821
LeftForeArm  20.9616 -15.4367 -9.39839
LeftHand  -1.39882 -0.0958445 29.4575
RightShoulder  1.26996 2.32667 15.021
RightArm  11.4104 16.7426 58.1462
RightForeArm  4.49422 15.7336 9.80153
RightHand  -0.515275 -0.691456 -12.7153
LeftUpLeg  -18.6996 11.3732 37.5431
LeftLeg  14.9985 3.41416 2.03237
LeftFoot  3.77781 4.48519 -33.1058
LeftToes  2.2737e-010 4.38529e-011 2.18788e-011
345
root  4.45759 36.0027 -1.64106 66.5568 -73.0866 -60.7953
RightUpLeg  -23.3092 -13.544 -4.11944
RightLeg  23.0626 -3.60834 -1.89815
RightFoot  2.04384 -2.82438 23.866
RightToes  -2.32832e-010 0 -3.6325e-017
Spine  29.768 1.66812 -3.26195
Spine1  -4.64489 -3.17367 29.1627
HEad  -38.8673 12.8003 -12.6694
LeftShoulder1  2.09431 -6.23472 -14.6398
LeftArm  13.5647 -9.00889 -61.9582
LeftForeArm  32.547 -11.6867 -11.4618
LeftHand  -1.2716 0.75871 31.3771
RightShoulder  1.24753 2.28231 14.7837
RightArm  24.01 18.5918 57.4803
RightForeArm  7.70037 19.2648 7.17366
RightHand  -0.466673 -1.88359 -15.3707
LeftUpLeg  -20.5027 6.80653 43.9247
LeftLeg  19.4763 6.48192 2.79208
LeftFoot  2.3079 4.28439 -34.8961
LeftToes  2.2737e-010 4.38529e-011 2.18788e-011
346
root  4.3671 35.5149 -1.8891 70.1113 -71.9598 -65.054
RightUpLeg  -25.2653 -14.017 -2.21012
RightLeg  27.9504 -1.99282 -1.38014
RightFoot  -0.464436 -2.26611 23.4623
RightToes  -2.32832e-010 0 -3.6325e-017
Spine  29.6907 2.50836 -4.2651
Spine1  -3.48304 -3.31649 32.8038
HEad  -39.7882 13.9163 -12.6667
LeftShoulder1  2.16767 -6.05023 -15.9386
LeftArm  5.04061 -10.6166 -57.5714
LeftForeArm  31.4498 -6.71819 -13.3764
LeftHand  -1.18228 0.479643 27.6458
RightShoulder  1.4123 2.66549 16.2073
RightArm  31.8863 20.9271 56.9305
RightForeArm  12.8281 21.8182 5.11569
RightHand  -0.265538 -3.65779 -17.0302
LeftUpLeg  -21.2257 2.99471 47.0804
LeftLeg  23.2918 9.24315 4.659
LeftFoot  0.984087 4.16337 -37.3387
LeftToes  2.2737e-010 4.38529e-011 2.18788e-011
347
root  4.31075 35.0771 -2.16033 72.7243 -73.0685 -68.312
RightUpLeg  -27.4673 -13.542 -2.73286
RightLeg  32.9534 -0.790581 -0.805781
RightFoot  -2.64836 -1.80146 23.1659
RightToes  -2.32832e-010 0 -3.6325e-017
Spine  29.7764 2.82874 -4.14664
Spine1  -2.24567 -2.90335 30.8195
HEad  -40.8949 13.231 -10.5534
LeftShoulder1  2.30791 -5.83506 -18.1298
LeftArm  -4.09079 -11.46 -50.9324
LeftForeArm  23.4406 -3.81248 -13.4765
LeftHand  -1.01898 0.680349 25.0006
RightShoulder  1.74857 3.44832 18.6903
RightArm  33.5612 21.3326 57.0224
RightForeArm  17.7764 24.5929 4.21436
RightHand  -0.128211 -4.58706 -16.7844
LeftUpLeg  -21.239 -0.223891 47.5854
LeftLeg  26.6811 11.6497 6.61671
LeftFoot  -0.0271294 4.07073 -39.5537
LeftToes  2.2737e-010 4.38529e-011 2.18788e-011
348
root  4.27625 34.7195 -2.33915 73.6072 -74.661 -69.829
RightUpLeg  -29.0312 -13.332 -4.16823
RightLeg  36.9084 0.110381 -0.18001
RightFoot  -4.26538 -1.46639 22.9542
RightToes  -2.32832e-010 0 -3.6325e-017
Spine  30.4712 2.00762 -1.11365
Spine1  -2.24122 -1.86507 24.09
HEad  -41.4326 10.4723 -7.36497
LeftShoulder1  2.35961 -5.75837 -18.9541
LeftArm  -9.12506 -11.3059 -45.1128
LeftForeArm  19.4264 -2.44736 -12.9489
LeftHand  -0.984199 0.848707 25.0004
RightShoulder  1.97709 4.06843 19.7398
RightArm  31.5206 19.2159 59.4794
RightForeArm  19.9165 26.5597 4.63996
RightHand  -0.191156 -4.06952 -15.8869
LeftUpLeg  -21.6181 -2.18543 46.8317
LeftLeg  30.0404 12.3142 7.91465
LeftFoot  -0.816046 3.89489 -40.5635
LeftToes  2.2737e-010 4.38529e-011 2.18788e-011
349
root  4.23466 34.4684 -2.34502 72.113 -75.7478 -68.8423
RightUpLeg  -29.6613 -14.0299 -5.5896
RightLeg  39.33 0.946762 0.548482
RightFoot  -5.30469 -1.2597 22.9138
RightToes  -2.32832e-010 0 -3.6325e-017
Spine  30.9637 0.362943 3.99307
Spine1  -2.83089 -0.79838 15.7859
HEad  -41.5212 6.4279 -5.10308
LeftShoulder1  2.27556 -5.72723 -18.0655
LeftArm  -9.50824 -11.0307 -41.8853
LeftForeArm  21.1689 -0.141625 -13.0474
LeftHand  -1.09205 -0.0255928 23.3745
RightShoulder  1.91738 4.27742 18.1282
RightArm  32.6936 16.7795 64.9214
RightForeArm  17.1354 26.1208 4.67613
RightHand  -0.352687 -2.78897 -15.3941
LeftUpLeg  -22.5343 -3.07836 45.9046
LeftLeg  32.9145 11.4745 8.22761
LeftFoot  -1.56169 3.62566 -40.6012
LeftToes  2.2737e-010 4.38529e-011 2.18788e-011
